<?xml version="1.0" encoding="UTF-8"?><svg id="Layer_1" xmlns="http://www.w3.org/2000/svg" viewBox="0 0 882.14 499.01"><defs><style>.cls-1,.cls-2{fill:#333843;}.cls-2{opacity:.2;}</style></defs><path class="cls-1" d="m0,407.08h15.34v90.89H0v-90.89Z"/><path class="cls-1" d="m126.91,407.08h15.34v90.89h-16.64l-51.49-66.32v66.32h-15.34v-90.89h15.34l52.79,67.88v-67.88Z"/><path class="cls-1" d="m220.02,421.13v76.85h-15.34v-76.85h-27.57v-14.04h70.48v14.04h-27.57Z"/><path class="cls-1" d="m346.28,407.08v14.43h-48.5v24.06h43.56v13.65h-43.56v24.32h50.06v14.43h-65.41v-90.89h63.85Z"/><path class="cls-1" d="m427.16,484.06c5.29,0,9.84-.89,13.65-2.67,3.81-1.78,7.8-4.62,11.96-8.52l9.88,10.14c-9.62,10.66-21.31,15.99-35.04,15.99s-25.14-4.42-34.2-13.26c-9.06-8.84-13.59-20.02-13.59-33.55s4.62-24.79,13.85-33.81c9.23-9.01,20.89-13.52,34.98-13.52s25.85,5.2,35.3,15.6l-9.75,10.66c-4.34-4.16-8.43-7.06-12.29-8.71-3.86-1.65-8.39-2.47-13.59-2.47-9.19,0-16.9,2.97-23.15,8.91-6.24,5.94-9.36,13.52-9.36,22.76s3.1,16.95,9.3,23.15c6.2,6.2,13.54,9.3,22.04,9.3Z"/><path class="cls-1" d="m572.14,436.6c0,15-6.55,24.45-19.63,28.35l23.8,33.03h-19.5l-21.72-30.56h-20.16v30.56h-15.34v-90.89h33.81c13.87,0,23.8,2.34,29.78,7.02,5.98,4.68,8.97,12.18,8.97,22.5Zm-20.41,12.87c3.12-2.69,4.68-7,4.68-12.94s-1.61-10.01-4.81-12.22c-3.21-2.21-8.93-3.32-17.16-3.32h-19.5v32.51h19.11c8.67,0,14.56-1.34,17.68-4.03Z"/><path class="cls-1" d="m625.32,477.3l-9.1,20.67h-16.38l40.05-90.89h16.38l40.05,90.89h-16.38l-9.1-20.67h-45.51Zm39.27-14.17l-16.51-37.45-16.51,37.45h33.03Z"/><path class="cls-1" d="m754.32,421.13v76.85h-15.34v-76.85h-27.57v-14.04h70.48v14.04h-27.57Z"/><path class="cls-1" d="m880.58,407.08v14.43h-48.5v24.06h43.56v13.65h-43.56v24.32h50.06v14.43h-65.41v-90.89h63.85Z"/><ellipse class="cls-2" cx="441.07" cy="339.4" rx="222.58" ry="13.77"/><path class="cls-1" d="m390.25,139.34v150.11c0,1.7.35,3.34.99,4.81.95,2.21,2.52,4.03,4.45,5.3,1.92,1.27,4.23,2.01,6.67,2.01,1.24,0,2.51-.2,3.75-.6l155.85-50.63c4.99-1.62,8.37-6.27,8.37-11.52v-111.06h-9.26v111.06c0,1.24-.8,2.33-1.97,2.72l-155.85,50.63c-.32.1-.61.14-.89.15-.73,0-1.46-.3-1.99-.83-.27-.26-.48-.56-.62-.9-.14-.34-.23-.7-.23-1.13v-150.11h-9.26Z"/><path class="cls-1" d="m314.24,128.74v98.07c0,3.05,1.2,5.98,3.33,8.16l74.57,62.1c7.2,7.35,19.7,2.46,19.99-7.83l3.99-138.48s-101.3-21.84-101.88-22.03Z"/><path class="cls-1" d="m305.95,124.34l2.71-3.75-42.16-32.93c-.52-.38-.78-.73-.96-1.07-.17-.35-.26-.71-.26-1.12-.01-.73.32-1.59.84-2.14.26-.28.54-.49.85-.63.31-.14.63-.22,1.06-.22.21,0,.45.02.73.08l43.18,9.02c.34.07.67.21.96.4l.16.1,74.59,45.03,2.19-4.08-2.51,3.89c.58.38.86.73,1.05,1.09.19.36.28.74.28,1.19.01.74-.32,1.6-.83,2.15-.25.28-.53.48-.83.62-.3.14-.63.22-1.07.22-.2,0-.42-.02-.67-.07l-.86,4.55,1.16-4.48-75.6-21.06-.15-.03c-.41-.08-.8-.25-1.15-.49l-2.71,3.75-2.71,3.75c1.44,1.04,3.1,1.76,4.86,2.09l.86-4.55-1.16,4.48,75.6,21.06.15.03c.8.15,1.6.23,2.39.23,1.77,0,3.46-.39,4.96-1.08,2.25-1.04,4.01-2.72,5.19-4.66,1.19-1.95,1.84-4.19,1.85-6.52,0-1.85-.43-3.77-1.37-5.53-.93-1.77-2.38-3.35-4.21-4.52l-.16-.1-74.59-45.03-2.19,4.08,2.51-3.89c-1.25-.81-2.64-1.38-4.09-1.68l-43.18-9.02c-.88-.18-1.76-.28-2.62-.27-1.76,0-3.45.39-4.94,1.07-2.24,1.03-4,2.7-5.2,4.64-1.2,1.95-1.87,4.19-1.87,6.54,0,1.76.39,3.58,1.24,5.27.84,1.69,2.15,3.23,3.81,4.43l42.16,32.93,2.71-3.75Z"/><path class="cls-1" d="m311.74,82.52l4.11-2.14-24.66-47.32c-.24-.46-.33-.88-.33-1.31,0-.66.25-1.35.69-1.87.22-.26.48-.47.77-.64.29-.16.62-.28,1.02-.33l145.23-19.63c.13-.02.26-.03.38-.03.94,0,1.84.47,2.37,1.27l.12.18,35.07,43.11,3.59-2.92-3.85,2.57c.35.54.48,1.04.49,1.57,0,.65-.24,1.34-.66,1.85-.21.26-.46.47-.74.64-.28.17-.6.29-1,.35h.03s-155.52,24.01-155.52,24.01h-.01c-.16.03-.31.04-.46.04-.52,0-1.03-.14-1.47-.41-.44-.27-.81-.64-1.06-1.12l-4.11,2.14-4.11,2.14c1.05,2.02,2.63,3.66,4.49,4.78,1.86,1.12,4.02,1.74,6.25,1.74.64,0,1.29-.05,1.94-.16h-.03s155.52-24.01,155.52-24.01h.02c1.52-.25,2.95-.77,4.2-1.51,1.89-1.11,3.38-2.68,4.4-4.48,1.02-1.81,1.58-3.86,1.58-5.99,0-2.28-.67-4.65-2.05-6.72l-.12-.18-35.07-43.1-3.59,2.92,3.85-2.58C446.75,1.99,442.96,0,438.95,0c-.54,0-1.08.04-1.62.11l-145.23,19.63c-1.55.21-3,.7-4.29,1.42-1.93,1.08-3.48,2.65-4.55,4.47-1.07,1.83-1.66,3.93-1.66,6.12,0,1.87.45,3.81,1.38,5.59l24.66,47.32,4.11-2.14Z"/><path class="cls-1" d="m486.12,53.67l1.62,4.34,48.29-18,.15-.07c.38-.17.78-.26,1.19-.26.34,0,.68.06,1.01.18l76.63,29c.7.27,1.08.62,1.38,1.07.29.45.46,1.02.46,1.61,0,.55-.15,1.08-.41,1.5-.27.43-.62.78-1.25,1.08l-48.2,22.25c-.38.18-.79.26-1.2.26-.43,0-.86-.1-1.25-.29l-.09-.04-76.65-33.34-1.85,4.24,2.03-4.16c-.6-.3-.95-.65-1.21-1.08-.26-.43-.4-.95-.4-1.48,0-.55.15-1.09.42-1.52.27-.43.63-.79,1.25-1.08l-1.93-4.21,1.62,4.34-1.62-4.34-1.93-4.21c-2.28,1.04-4.11,2.72-5.3,4.67-1.19,1.95-1.77,4.15-1.77,6.34,0,2.14.56,4.3,1.7,6.22,1.14,1.92,2.9,3.59,5.11,4.66l.09.04,76.65,33.34,1.85-4.24-2.03,4.16c1.67.82,3.49,1.22,5.31,1.22,1.73,0,3.47-.37,5.08-1.12l48.2-22.25c2.28-1.05,4.11-2.73,5.28-4.68,1.18-1.95,1.75-4.14,1.75-6.31,0-2.32-.65-4.64-1.97-6.67-1.31-2.03-3.35-3.73-5.86-4.67l-76.63-29c-1.38-.52-2.84-.78-4.29-.78-1.72,0-3.45.37-5.04,1.1l1.93,4.21-1.62-4.34-48.29,18-.15.07,1.93,4.21Z"/><path class="cls-1" d="m564.39,102.34l-.9-4.54-161.91,31.96h-.04c-1.49.33-2.88.91-4.09,1.69-1.82,1.17-3.21,2.78-4.1,4.55-.9,1.77-1.33,3.69-1.34,5.61,0,2.49.74,5.02,2.3,7.17.78,1.07,1.77,2.05,2.93,2.83,1.16.79,2.5,1.38,3.95,1.74l.33.08,50.96,5.01.45-4.61-1.12,4.49c.96.24,1.95.36,2.94.36.95,0,1.89-.11,2.82-.33l138.45-33.09c1.47-.35,2.82-.94,4.01-1.72,1.78-1.17,3.14-2.78,4.01-4.53.87-1.75,1.29-3.64,1.29-5.51,0-2.69-.85-5.4-2.63-7.66-.89-1.12-2.02-2.11-3.34-2.87-1.32-.76-2.84-1.27-4.45-1.5l-27.21-3.84c-.56-.08-1.13-.12-1.69-.12-.87,0-1.73.09-2.58.28l.99,4.52-.9-4.54.9,4.54.99,4.52c.2-.04.4-.07.61-.07.13,0,.27,0,.4.03l27.21,3.84c.51.07.87.21,1.15.37.42.24.71.55.94.98.23.42.37.96.37,1.5,0,.67-.21,1.3-.53,1.73-.16.22-.36.41-.61.58-.26.17-.58.32-1.05.44l-138.45,33.09c-.22.05-.44.08-.66.08-.23,0-.46-.03-.69-.09l-.33-.08-50.96-5.01-.45,4.61,1.12-4.49c-.45-.11-.77-.27-1.02-.44-.38-.26-.63-.56-.83-.96-.2-.39-.31-.88-.31-1.37,0-.68.22-1.33.56-1.79.17-.23.37-.42.64-.59.26-.17.59-.32,1.05-.42l-.99-4.52.9,4.54,161.91-31.96h.04s-.99-4.53-.99-4.53Z"/><polyline class="cls-1" points="475.67 60.43 475.67 120.7 484.92 120.7 484.92 60.43"/><polygon class="cls-1" points="480.29 60.43 480.29 120.7 394.88 139.34 314.24 87.31 480.29 60.43"/></svg>