<?xml version="1.0" encoding="UTF-8"?><svg id="Layer_1" xmlns="http://www.w3.org/2000/svg" viewBox="0 0 1657.95 1351.03"><path d="m601.33,624.24v672.5c0,7.61,1.58,14.95,4.42,21.53,4.27,9.88,11.3,18.04,19.92,23.75,8.62,5.71,18.96,9.02,29.87,9.02,5.57,0,11.27-.87,16.82-2.68l698.2-226.83c22.36-7.27,37.5-28.1,37.5-51.61v-497.55h-41.48v497.55c0,5.54-3.57,10.46-8.84,12.17l-698.2,226.83c-1.42.46-2.73.65-4.01.65-3.27.01-6.53-1.36-8.93-3.71-1.19-1.16-2.14-2.53-2.78-4.03-.64-1.51-1.02-3.14-1.02-5.08v-672.5h-41.48Z"/><path d="m260.8,576.73v439.35c0,13.67,5.36,26.8,14.92,36.56l334.06,278.21c32.25,32.94,88.25,11.02,89.58-35.06l17.86-620.37s-453.79-97.85-456.42-98.69Z"/><path d="m223.65,557.04l12.15-16.81L46.92,392.69c-2.33-1.71-3.5-3.27-4.29-4.81-.77-1.55-1.15-3.18-1.15-5.03-.05-3.27,1.44-7.1,3.76-9.58,1.15-1.26,2.42-2.19,3.79-2.82,1.37-.62,2.83-.99,4.76-1,.95,0,2.02.1,3.25.36l193.44,40.39c1.54.32,3,.92,4.32,1.77l.7.45,334.16,201.73,9.82-18.27-11.24,17.43c2.59,1.7,3.85,3.28,4.72,4.87.84,1.59,1.27,3.33,1.27,5.32.05,3.32-1.44,7.18-3.72,9.64-1.13,1.25-2.38,2.17-3.73,2.79-1.36.62-2.83,1-4.82,1.01-.89,0-1.89-.08-3.02-.3l-3.83,20.38,5.19-20.08-338.66-94.36-.68-.13c-1.85-.35-3.6-1.1-5.13-2.21l-12.15,16.81-12.15,16.81c6.47,4.68,13.9,7.87,21.76,9.35l3.84-20.38-5.19,20.08,338.66,94.36.68.13c3.58.67,7.16,1.01,10.69,1.01,7.91.01,15.52-1.73,22.2-4.83,10.06-4.65,17.95-12.16,23.27-20.87,5.33-8.73,8.26-18.77,8.27-29.21,0-8.28-1.91-16.87-6.12-24.78-4.18-7.91-10.66-15-18.86-20.27l-.69-.45-334.16-201.73-9.82,18.27,11.25-17.42c-5.6-3.61-11.82-6.16-18.33-7.52l-193.44-40.39c-3.93-.82-7.86-1.23-11.73-1.23-7.88,0-15.45,1.73-22.11,4.81-10.02,4.62-17.92,12.08-23.29,20.77C3.01,362.26.01,372.33,0,382.85c0,7.87,1.74,16.02,5.54,23.6,3.78,7.58,9.63,14.49,17.08,19.86l188.88,147.54,12.15-16.81Z"/><path d="m249.61,369.69l18.39-9.58-110.48-212c-1.06-2.05-1.47-3.95-1.48-5.88-.01-2.97,1.13-6.05,3.1-8.37.98-1.16,2.14-2.12,3.45-2.85,1.32-.73,2.78-1.25,4.56-1.49L817.77,41.59c.58-.08,1.15-.12,1.72-.12,4.22,0,8.24,2.1,10.63,5.68l.54.8,157.12,193.11,16.09-13.09-17.24,11.53c1.59,2.41,2.17,4.65,2.19,7.03.02,2.92-1.08,5.99-2.98,8.28-.94,1.15-2.05,2.11-3.32,2.85-1.28.74-2.71,1.29-4.48,1.58l.15-.02-696.74,107.58h-.06c-.7.12-1.38.18-2.06.18-2.34,0-4.62-.65-6.6-1.84-1.98-1.2-3.61-2.88-4.73-5.04l-18.39,9.58-18.39,9.58c4.71,9.05,11.77,16.38,20.11,21.4,8.34,5.03,18,7.79,28.01,7.79,2.88,0,5.79-.23,8.68-.7l-.15.02,696.71-107.57h.08c6.81-1.11,13.2-3.46,18.83-6.76,8.45-4.95,15.16-11.99,19.73-20.09,4.57-8.1,7.07-17.31,7.08-26.83.02-10.22-2.98-20.84-9.2-30.1l-.54-.81L863.44,22.53l-16.09,13.09,17.23-11.54C854.42,8.91,837.45,0,819.49,0c-2.42,0-4.85.16-7.28.49L161.6,88.41c-6.93.93-13.45,3.16-19.22,6.38-8.67,4.84-15.61,11.86-20.38,20.04-4.77,8.19-7.43,17.61-7.43,27.4-.01,8.4,2,17.06,6.17,25.05l110.48,212,18.39-9.58Z"/><path d="m1030.8,240.42l7.24,19.43,216.32-80.66.68-.31c1.69-.77,3.5-1.16,5.32-1.16,1.53,0,3.06.27,4.53.83l343.31,129.9c3.12,1.22,4.83,2.8,6.19,4.81,1.32,2,2.08,4.58,2.08,7.2,0,2.46-.66,4.83-1.83,6.74-1.2,1.92-2.76,3.5-5.61,4.84l-215.95,99.67c-1.71.79-3.53,1.18-5.36,1.18-1.92,0-3.84-.43-5.6-1.29l-.4-.2-343.37-149.36-8.27,19.02,9.08-18.64c-2.69-1.34-4.24-2.92-5.41-4.84-1.14-1.91-1.78-4.25-1.78-6.65,0-2.46.67-4.87,1.86-6.8,1.22-1.95,2.82-3.53,5.6-4.84l-8.64-18.85,7.24,19.43-7.24-19.43-8.64-18.85c-10.23,4.66-18.42,12.19-23.73,20.93-5.34,8.75-7.94,18.61-7.94,28.42,0,9.59,2.49,19.25,7.62,27.88,5.1,8.62,12.98,16.1,22.87,20.9l.4.2,343.37,149.36,8.27-19.02-9.09,18.64c7.49,3.65,15.64,5.49,23.78,5.48,7.75,0,15.53-1.66,22.74-5l215.95-99.67c10.22-4.68,18.39-12.22,23.67-20.95,5.31-8.74,7.86-18.56,7.86-28.28,0-10.37-2.9-20.78-8.82-29.88-5.89-9.09-15.01-16.71-26.24-20.92l-343.3-129.9c-6.19-2.34-12.71-3.51-19.21-3.51-7.72,0-15.44,1.65-22.6,4.93l8.64,18.85-7.25-19.43-216.32,80.65-.69.31,8.64,18.85Z"/><path d="m1381.46,458.48l-4.02-20.35-725.33,143.19-.2.04c-6.69,1.46-12.91,4.03-18.33,7.53-8.15,5.23-14.37,12.46-18.39,20.38-4.03,7.94-5.98,16.55-5.98,25.14,0,11.16,3.29,22.47,10.28,32.13,3.49,4.81,7.91,9.17,13.13,12.68,5.22,3.52,11.22,6.19,17.7,7.81l1.48.37,228.32,22.43,2.03-20.64-5.03,20.12c4.32,1.08,8.74,1.62,13.15,1.62,4.23,0,8.47-.5,12.61-1.49l620.23-148.24c6.56-1.56,12.65-4.19,17.95-7.7,7.97-5.26,14.05-12.44,17.94-20.27,3.91-7.84,5.76-16.31,5.77-24.7-.01-12.05-3.81-24.21-11.79-34.3-3.99-5.02-9.04-9.46-14.98-12.84-5.93-3.39-12.71-5.7-19.92-6.71l-121.9-17.19c-2.51-.35-5.05-.53-7.58-.53-3.88,0-7.76.42-11.57,1.25l4.42,20.26-4.02-20.35,4.02,20.35,4.42,20.26c.9-.2,1.81-.29,2.73-.29.6,0,1.19.04,1.78.13l121.9,17.19c2.3.33,3.89.95,5.16,1.66,1.87,1.08,3.17,2.47,4.22,4.38,1.03,1.89,1.65,4.32,1.64,6.74,0,3.02-.92,5.81-2.37,7.77-.73,1-1.59,1.84-2.74,2.6-1.15.76-2.61,1.45-4.71,1.96l-620.22,148.24c-.98.23-1.98.35-2.98.35-1.04,0-2.08-.13-3.1-.38l-1.48-.37-228.32-22.43-2.03,20.64,5.03-20.12c-2.01-.51-3.43-1.2-4.57-1.96-1.69-1.15-2.84-2.52-3.73-4.28-.88-1.75-1.39-3.92-1.39-6.14,0-3.05.97-5.97,2.51-8,.78-1.03,1.68-1.9,2.85-2.65,1.18-.75,2.64-1.42,4.71-1.88l-4.42-20.26,4.02,20.35,725.34-143.2.19-.04-4.42-20.26Z"/><polyline points="983.96 270.74 983.96 540.72 1025.44 540.72 1025.44 270.74"/><polygon points="1004.7 270.74 1004.7 540.72 622.07 624.24 260.8 391.16 1004.7 270.74"/></svg>